<svg width="15" height="15" viewBox="0 0 9 5" fill="none" xmlns="http://www.w3.org/2000/svg">
<path d="M3.89181 4.27748C3.63331 4.03479 3.63331 3.64131 3.89181 3.39862L7.22206 0.27205C7.48056 0.0293595 7.89967 0.0293599 8.15818 0.272051C8.41668 0.514742 8.41668 0.908221 8.15818 1.15091L4.82792 4.27748C4.56942 4.52017 4.15031 4.52017 3.89181 4.27748Z" fill="#0066FF"/>
<path d="M4.82263 4.27748C5.08113 4.03479 5.08113 3.64131 4.82263 3.39862L1.48204 0.26234C1.22354 0.0196494 0.804427 0.0196498 0.545926 0.262341C0.287426 0.505031 0.287426 0.898511 0.545926 1.1412L3.88652 4.27748C4.14502 4.52017 4.56413 4.52017 4.82263 4.27748Z" fill="#0066FF"/>
</svg>
